<?xml version="1.0" encoding="UTF-8"?>
<svg id="Capa_1" data-name="Capa 1" xmlns="http://www.w3.org/2000/svg" viewBox="0 0 1011.03 685.3">
  <defs>
    <style>
      .cls-1 {
        fill: #54ade2;
        stroke-width: 0px;
      }
    </style>
  </defs>
  <path class="cls-1" d="M472.41,684.63c-107.4,0-214.8-.04-322.2.13-5.4,0-6.93-1.1-6.92-6.78.22-75.94.22-151.89,0-227.83-.02-5.98,1.8-7.15,7.35-7.1,29.99.26,59.99.29,89.99-.02,5.84-.06,7.77,1.05,7.69,7.38-.39,28.95-.05,57.9-.29,86.85-.04,4.97.83,6.76,6.35,6.75,145.37-.16,290.73-.16,436.1-.02,4.93,0,6.3-1.25,6.26-6.23-.24-29.37.02-58.74-.24-88.11-.05-5.33,1.57-6.63,6.72-6.59,30.83.23,61.67.22,92.5,0,4.96-.04,6.28,1.31,6.27,6.29-.16,76.36-.18,152.73.03,229.09.02,5.65-1.92,6.3-6.78,6.29-107.61-.13-215.22-.1-322.83-.1Z"/>
  <path class="cls-1" d="M571.8,437.76c-.1-2.1-.24-3.72-.24-5.34-.01-40.49.05-80.98-.1-121.46-.01-3.98,1.11-5.65,5-6.99,77.52-26.66,154.97-53.5,232.44-80.32.99-.34,1.94-.8,2.94-1.08,2.06-.56,3.97-.97,4.01-3.88.05-3.08-2.27-3.13-4.1-3.77-15.75-5.5-31.53-10.95-47.3-16.4-62.49-21.6-124.98-43.21-187.5-64.74-3.42-1.18-5.56-2.23-5.53-6.71.22-41.12.13-82.23.14-123.35,0-1.01.14-2.02.27-3.71,14.12,5.63,27.85,11.09,41.56,16.58,105.18,42.11,210.39,84.17,315.48,126.48,7.82,3.15,16.02,2.74,23.85,4.82,29.58,7.88,49.71,26.35,56.42,56.21,6.77,30.12-5.13,54.61-28.93,73.36-11.44,9.01-24.71,13.87-39.41,14.2-3.67.08-6.96,1.36-10.24,2.67-117.56,47.02-235.1,94.06-352.65,141.1-1.9.76-3.81,1.46-6.11,2.33Z"/>
  <path class="cls-1" d="M390.33.75c0,42.69-.07,85.05.1,127.42.02,4.31-2.76,4.52-5.42,5.44-49.08,16.99-98.17,33.96-147.26,50.95-28.78,9.96-57.55,19.93-86.3,29.96-2.14.75-5.22.32-5.38,4.04-.18,4.19,3.37,3.87,5.61,4.64,77.64,26.95,155.31,53.84,233.04,80.54,4.27,1.47,5.76,3.14,5.73,7.74-.2,40.07-.12,80.14-.12,120.21v6.32c-14.52-5.77-28.44-11.27-42.34-16.83-114.1-45.68-228.18-91.39-342.32-136.97C1.62,282.61-.03,280.86,0,276.23c.22-38.39.19-76.78.03-115.17-.02-3.99,1.29-5.64,4.99-7.11C131.72,103.37,258.35,52.66,385,1.97c1.54-.61,2.96-1.61,5.33-1.21Z"/>
  <path class="cls-1" d="M935.5,480.57c16.14,0,32.29.2,48.43-.12,4.81-.1,5.83,1.22,5.69,5.93-1.54,53.06-13.79,103.76-33.19,152.9-5.51,13.96-11.51,27.73-17.09,41.67-1.28,3.2-3,4.37-6.5,4.35-26.41-.15-52.83-.16-79.25,0-4.28.03-5.21-.73-3.93-5.17,8.1-28.05,15.91-56.17,21.85-84.81,7.36-35.48,10.07-71.27,9.32-107.37-.13-6.05,1.37-7.74,7.5-7.55,15.71.48,31.44.16,47.17.16Z"/>
</svg>