<?xml version="1.0" encoding="UTF-8"?>
<svg id="Capa_1" data-name="Capa 1" xmlns="http://www.w3.org/2000/svg" version="1.1" viewBox="0 0 1011.2 717.2">
  <defs>
    <style>
      .cls-1 {
        fill: #a0f;
        stroke-width: 0px;
      }
    </style>
  </defs>
  <path class="cls-1" d="M472.5,716.5c-107.4,0-214.8,0-322.2,0-5.4,0-6.9-1.1-6.9-6.8.2-75.9.2-151.9,0-227.8,0-6,1.8-7.1,7.4-7.1,30,.3,60,.3,90,0,5.8,0,7.8,1,7.7,7.4-.4,29,0,57.9-.3,86.8,0,5,.8,6.8,6.4,6.8,145.4-.2,290.7-.2,436.1,0,4.9,0,6.3-1.2,6.3-6.2-.2-29.4,0-58.7-.2-88.1,0-5.3,1.6-6.6,6.7-6.6,30.8.2,61.7.2,92.5,0,5,0,6.3,1.3,6.3,6.3-.2,76.4-.2,152.7,0,229.1,0,5.7-1.9,6.3-6.8,6.3-107.6,0-215.2,0-322.8,0h0l-.2-.2Z"/>
  <path class="cls-1" d="M571.9,437.7c0-2.1-.2-3.7-.2-5.3v-121.5c0-4,1.1-5.6,5-7,77.5-26.7,155-53.5,232.4-80.3,1-.3,1.9-.8,2.9-1.1,2.1-.6,4-1,4-3.9s-2.3-3.1-4.1-3.8c-15.8-5.5-31.5-10.9-47.3-16.4-62.5-21.6-125-43.2-187.5-64.7-3.4-1.2-5.6-2.2-5.5-6.7.2-41.1,0-82.2,0-123.3s0-2,.3-3.7c14.1,5.6,27.8,11.1,41.6,16.6,105.2,42.1,210.4,84.2,315.5,126.5,7.8,3.1,16,2.7,23.8,4.8,29.6,7.9,49.7,26.4,56.4,56.2,6.8,30.1-5.1,54.6-28.9,73.4-11.4,9-24.7,13.9-39.4,14.2-3.7,0-7,1.4-10.2,2.7-117.6,47-235.1,94.1-352.6,141.1-1.9.8-3.8,1.5-6.1,2.3h-.2Z"/>
  <path class="cls-1" d="M390.4.6c0,42.7,0,85.1.1,127.4,0,4.3-2.8,4.5-5.4,5.4-49.1,17-98.2,34-147.3,50.9-28.8,10-57.6,19.9-86.3,30-2.1.8-5.2.3-5.4,4-.2,4.2,3.4,3.9,5.6,4.6,77.6,26.9,155.3,53.8,233,80.5,4.3,1.5,5.8,3.1,5.7,7.7-.2,40.1-.1,80.1-.1,120.2v6.3c-14.5-5.8-28.4-11.3-42.3-16.8-114.1-45.7-228.2-91.4-342.3-137-4-1.6-5.7-3.4-5.7-8,.2-38.4.2-76.8,0-115.2,0-4,1.3-5.6,5-7.1C131.8,103.3,258.5,52.6,385.1,1.9c1.5-.6,3-1.6,5.3-1.2h0Z"/>
  <path class="cls-1" d="M935.6,512.5c16.1,0,32.3.2,48.4-.1,4.8-.1,5.8,1.2,5.7,5.9-1.5,53.1-13.8,103.8-33.2,152.9-5.5,14-11.5,27.7-17.1,41.7-1.3,3.2-3,4.4-6.5,4.3-26.4-.2-52.8-.2-79.2,0-4.3,0-5.2-.7-3.9-5.2,8.1-28,15.9-56.2,21.8-84.8,7.4-35.5,10.1-71.3,9.3-107.4,0-6,1.4-7.7,7.5-7.5,15.7.5,31.4.2,47.2.2h0Z"/>
</svg>